<?xml version="1.0" encoding="UTF-8"?>
<svg id="Layer_1" xmlns="http://www.w3.org/2000/svg" version="1.1" viewBox="0 0 50 55.8">
  <!-- Generator: Adobe Illustrator 29.3.1, SVG Export Plug-In . SVG Version: 2.1.0 Build 151)  -->
  <defs>
    <style>
      .st0 {
        fill: none;
        stroke: #fff;
      }

      .st0, .st1 {
        stroke-miterlimit: 10;
      }

      .st1 {
        stroke: #000;
      }
    </style>
  </defs>
  <rect class="st1" x="1.9" y="4.8" width="46.2" height="46.2" rx="13.1" ry="13.1"/>
  <path class="st0" d="M33.7,30.6c-.9,0-1.8.4-2.3,1.2-.6.8-1.5,1.7-2.8,2-1,.2-2.5-.7-3.8-1.6-1.7-1.2-3.2-2.7-4.4-4.4-1.1-1.4-2.1-3.2-1.9-4.4.2-1.3,1.2-2.2,2-2.8s1.2-1.4,1.2-2.3c0-1.6-.3-4-2-6-.6-.7-1.5-1-2.4-1-2.3.2-6.8,1.5-6.4,7.5.5,7.1,6.2,13.2,7.5,14.5h0s6.6,7.3,14.6,8c6,.5,7.3-3.9,7.6-6.2s-4-4.8-6.8-4.6Z"/>
</svg>